# xmcd
#
# Track frame offsets:
#	150
#	14993
#	33654
#	51789
#	65348
#	86636
#	103789
#	119662
#	133958
#	148192
#	161991
#	183199
#
# Disc length: 2661 seconds
#
# Revision: 1
# Processed by: cddbd v1.5.2PL0 Copyright (c) Steve Scherf et al.
# Submitted via: audiograbber 1.83.01
#
DISCID=bc0a630c
DTITLE=Manfred Krug - Der Weihnachts-Krug
DYEAR=1900
DGENRE=Weihnachten
TTITLE0=Alle Jahre wieder
TTITLE1=vom Himmel hoch
TTITLE2=O du fröhliche Weihnachtszeit
TTITLE3=Morgen kommt der Weihnachtsmann
TTITLE4=Stille Nacht
TTITLE5=Es ist ein Ros' entsprungen
TTITLE6=Kling, Glöckchen, klingeling
TTITLE7=Leise rieselt der Schnee
TTITLE8=Laßt uns froh und munter sein
TTITLE9=O Tannenbaum
TTITLE10=Süßer die Glocken nie klingen
TTITLE11=Am Weihnachtsbaum die Lichter brennen
EXTD=
EXTT0=
EXTT1=
EXTT2=
EXTT3=
EXTT4=
EXTT5=
EXTT6=
EXTT7=
EXTT8=
EXTT9=
EXTT10=
EXTT11=
PLAYORDER=
